<svg xmlns="http://www.w3.org/2000/svg" viewBox="0 0 60.63 52.44"><defs><style>.cls-1{fill:#39ff41;}</style></defs><title>Fichier 3mdpi</title><g id="Calque_2" data-name="Calque 2"><g id="corps"><path class="cls-1" d="M26.06,38.16c-.22-3.24.32-7.09-.34-10.93-.37-2.13-1.15-2.25-2.71-1-3.4,2.73-6.24,6-9.37,9-2,1.87-3.78,3.88-5.79,5.68a4.56,4.56,0,0,1-6.27-.08,4.68,4.68,0,0,1-.84-6A17.1,17.1,0,0,1,3.07,32q5.52-5.61,11.12-11.14a14.74,14.74,0,0,0,4.65-9.44C19.59,3.69,25.63-1.17,32.35.24,34.42.68,36.43,1.4,38.47,2A2,2,0,0,1,40,3.49c.84,3.23,2.37,6.28,2.34,9.75,0,3.09,1.88,5.37,3.87,7.44C50,24.63,53.92,28.47,57.8,32.35c.46.47,1,.92,1.37,1.41,1.85,2.12,1.95,5.06.26,6.67a5.09,5.09,0,0,1-6.92-.22C48.28,36.1,44.15,31.89,40,27.74a21.69,21.69,0,0,0-2.43-2.06c-1.08-.79-1.88-.52-2.1.83a29.51,29.51,0,0,0-.49,4.38c-.06,5.5,0,11,0,16.48,0,3.14-1.73,5.07-4.41,5.07s-4.38-1.92-4.41-5.07C26,44.5,26.06,41.63,26.06,38.16Zm5-35.58c-4.58-.33-7.95,1.94-9.35,5.64a9.53,9.53,0,0,0,3,10.84A9.53,9.53,0,0,0,36.33,19c2.51-1.89,3.77-5,2.91-7.34-1.6,1.42-3,3.23-4.8,4.11-2.13,1-4.18-.44-5.74-1.87C23.85,9.46,26.91,6,31.08,2.58ZM56.14,40.12a2.77,2.77,0,0,0,2.66-3.74A7,7,0,0,0,57.09,34c-5-5.51-11.15-9.95-15.22-16.33-.4-.62-.94-.82-1.32-.09-1,1.82-3.43,2.79-3.59,4.82-.15,1.72,2.35,2,3.35,3.25A20.28,20.28,0,0,0,42,27.4q5.48,5.49,11,11A4.9,4.9,0,0,0,56.14,40.12ZM27.51,36.85c0,3.76,0,7,0,10.3,0,2,.71,3.72,3,3.69s2.89-1.78,2.93-3.77c0-.33,0-.65,0-1,.26-6.93-.55-13.89.52-20.8.12-.78.05-1.59-.9-1.73a14.44,14.44,0,0,0-5.12.09c-.89.19-1.11.91-.92,1.72C28,29.33,27.26,33.36,27.51,36.85ZM4.94,39.67c1.25.11,2.05-.88,2.94-1.73,4.61-4.42,8.81-9.25,13.72-13.36,1-.83,2.82-1.35,3-2.28.27-1.2-1.82-1.52-2.55-2.58-.47-.67-1-1.29-1.49-1.95s-.84-.65-1.28,0C15.12,24.4,8.85,29.07,3.67,34.73a8.48,8.48,0,0,0-1,1.12C1.6,37.61,2.69,39.6,4.94,39.67ZM35.11,11.05c1.63,0,3.67-2.12,3.59-3.68a4,4,0,0,0-4.07-4c-1.53,0-3.77,2.16-3.71,3.6A3.93,3.93,0,0,0,35.11,11.05Z"/><path class="cls-1" d="M53.15,33.57c-.36.93-.95.91-1.51.35C48,30.3,44.35,26.65,40.71,23c-.36-.36-.59-.82-.17-1.29a.71.71,0,0,1,1.09,0q5.65,5.6,11.27,11.24A1.78,1.78,0,0,1,53.15,33.57Z"/><path class="cls-1" d="M29.55,34.52c0-2.2,0-4.41,0-6.61,0-.69-.09-1.67,1-1.64.87,0,.85.88.86,1.51q0,7,0,14c0,.63,0,1.49-.86,1.52-1.06,0-1-.95-1-1.64C29.53,39.25,29.55,36.89,29.55,34.52Z"/><path class="cls-1" d="M21,22.46a9.17,9.17,0,0,1-.91,1.23q-5,5.07-10.07,10.07c-.56.56-1.24,1.34-2.08.56-1-.91-.12-1.64.49-2.26Q13.4,27,18.46,22c.51-.5,1-1.14,1.91-.71A1.18,1.18,0,0,1,21,22.46Z"/></g></g></svg>