<svg xmlns="http://www.w3.org/2000/svg" viewBox="0 0 30.27 53.92"><defs><style>.cls-1{fill:#39ff41;}</style></defs><title>Fichier 2mdpi</title><g id="Calque_2" data-name="Calque 2"><g id="corps"><path class="cls-1" d="M15,0A14.9,14.9,0,0,1,30.16,16.91,11.14,11.14,0,0,1,27,23.43c-1.4,1.49-2.87,2.92-4.28,4.41a13.8,13.8,0,0,0-4,8c-.31,2.44-1.14,2.67-5.13,2.38-2.23-.17-1.88-1.66-1.78-3a14.4,14.4,0,0,1,4.08-9c1.63-1.73,3.37-3.35,5-5.09,2.48-2.69,3.39-5.73,1.84-9.25a8.28,8.28,0,0,0-15.46.42c-.8,2-4.67,3.19-6.55,2.06-1.12-.67-.68-1.73-.46-2.65A14.84,14.84,0,0,1,15,0Z"/><path class="cls-1" d="M15.07,47.23c3.4,0,3.4,0,3.39,3.42,0,3.25,0,3.27-3.3,3.27s-3.4,0-3.39-3.43C11.77,47.24,11.78,47.24,15.07,47.23Z"/></g></g></svg>